<?xml version="1.0" encoding="utf-8"?>
<!-- Generator: Adobe Illustrator 23.0.2, SVG Export Plug-In . SVG Version: 6.00 Build 0)  -->
<svg version="1.1" id="Layer_1" xmlns="http://www.w3.org/2000/svg" xmlns:xlink="http://www.w3.org/1999/xlink" x="0px" y="0px"
	 viewBox="0 0 200 91.2" style="enable-background:new 0 0 200 91.2;" xml:space="preserve">
<style type="text/css">
	.st0{fill:#FFFFFF;}
	.st1{fill:#636363;}
	.st2{fill:#B7B7B7;}
</style>
<g>
	<path class="st0" d="M138.4,58.2c0,7.3-5.9,13.3-13.3,13.3l-29-0.2c-14.3,0-25.8-11.6-25.8-25.8c0-14.3,11.6-25.9,25.8-25.9
		c14.2,0,25.8,11.5,25.8,25.7c1-0.3,2.1-0.4,3.2-0.4C132.4,45,138.4,50.9,138.4,58.2z"/>
	<path class="st1" d="M152.7,36c0,2.8-2.3,5.1-5.1,5.1L136.5,41c-5.5,0-9.9-4.4-9.9-9.9c0-5.5,4.4-9.9,9.9-9.9
		c5.5,0,9.9,4.4,9.9,9.9c0.4-0.1,0.8-0.1,1.2-0.1C150.5,30.9,152.7,33.2,152.7,36z"/>
	<path class="st1" d="M93.2,54.1c0,4.9-4,8.9-8.9,8.9L64.7,63c-9.6,0-17.4-7.8-17.4-17.4c0-9.6,7.8-17.4,17.4-17.4
		c9.6,0,17.3,7.7,17.4,17.3c0.7-0.2,1.4-0.3,2.1-0.3C89.2,45.2,93.2,49.2,93.2,54.1z"/>
</g>
<path class="st2" d="M164,130.9l11.3-18.9c0.3-0.6,1.1-0.8,1.6-0.4l0,0c0.6,0.3,0.8,1.1,0.4,1.7l-11.3,18.8
	c-0.3,0.6-1.1,0.8-1.6,0.4l0,0C163.8,132.2,163.6,131.4,164,130.9z"/>
<path class="st0" d="M80.5,123.6l11.3-18.8c0.3-0.6,1.1-0.8,1.7-0.4l0,0c0.6,0.3,0.8,1.1,0.4,1.7l-11.3,18.9
	c-0.3,0.6-1.1,0.8-1.7,0.4l0,0C80.3,125,80.1,124.2,80.5,123.6z"/>
<path class="st2" d="M147.9,154.8l11.3-18.9c0.3-0.6,1.1-0.8,1.6-0.4l0,0c0.6,0.3,0.8,1.1,0.4,1.6L150,156.1
	c-0.3,0.6-1.1,0.8-1.6,0.4l0,0C147.8,156.1,147.6,155.4,147.9,154.8z"/>
<path class="st0" d="M121,123.9l11.3-18.8c0.3-0.6,1.1-0.8,1.7-0.4l0,0c0.6,0.3,0.8,1.1,0.4,1.7L123,125.2c-0.3,0.6-1.1,0.8-1.7,0.4
	l0,0C120.8,125.3,120.6,124.5,121,123.9z"/>
<path class="st0" d="M100.7,123.9l11.3-18.8c0.3-0.6,1.1-0.8,1.7-0.4l0,0c0.6,0.3,0.8,1.1,0.4,1.7l-11.3,18.9
	c-0.3,0.6-1.1,0.8-1.7,0.4l0,0C100.6,125.3,100.4,124.5,100.7,123.9z"/>
</svg>
