<?xml version="1.0" encoding="utf-8"?>
<!-- Generator: Adobe Illustrator 23.0.2, SVG Export Plug-In . SVG Version: 6.00 Build 0)  -->
<svg version="1.1" id="Layer_1" xmlns="http://www.w3.org/2000/svg" xmlns:xlink="http://www.w3.org/1999/xlink" x="0px" y="0px"
	 viewBox="0 0 200 91.2" style="enable-background:new 0 0 200 91.2;" xml:space="preserve">
<style type="text/css">
	.st0{fill:#FFFFFF;}
	.st1{fill:#F2C337;}
	.st2{fill:#6B3434;}
</style>
<path class="st0" d="M354.6,97.8c0,7.3-6,13.3-13.3,13.3l-29-0.2c-14.3,0-25.9-11.6-25.9-25.8c0-14.3,11.6-25.9,25.9-25.9
	c14.2,0,25.8,11.5,25.9,25.7c1-0.3,2.1-0.4,3.2-0.4C348.7,84.5,354.6,90.4,354.6,97.8z"/>
<ellipse class="st1" cx="97.3" cy="44.3" rx="22.6" ry="22.6"/>
<path class="st0" d="M135.8,65.1h-35c-0.7,0-1.3-0.6-1.3-1.3v0c0-0.7,0.6-1.3,1.3-1.3h35c0.7,0,1.3,0.6,1.3,1.3v0
	C137.1,64.5,136.6,65.1,135.8,65.1z"/>
<path class="st0" d="M120,69.5H85c-0.7,0-1.3-0.6-1.3-1.3v0c0-0.7,0.6-1.3,1.3-1.3h35c0.7,0,1.3,0.6,1.3,1.3v0
	C121.3,68.9,120.7,69.5,120,69.5z"/>
<path class="st0" d="M93.2,65.1h-35c-0.7,0-1.3-0.6-1.3-1.3v0c0-0.7,0.6-1.3,1.3-1.3h35c0.7,0,1.3,0.6,1.3,1.3v0
	C94.5,64.5,94,65.1,93.2,65.1z"/>
<path class="st0" d="M118.6,59.8h-35c-0.7,0-1.3-0.6-1.3-1.3l0,0c0-0.7,0.6-1.3,1.3-1.3h35c0.7,0,1.3,0.6,1.3,1.3l0,0
	C119.9,59.2,119.3,59.8,118.6,59.8z"/>
<path class="st0" d="M101.7,53.5h-35c-0.7,0-1.3-0.6-1.3-1.3l0,0c0-0.7,0.6-1.3,1.3-1.3h35c0.7,0,1.3,0.6,1.3,1.3l0,0
	C103,53,102.5,53.5,101.7,53.5z"/>
<path class="st0" d="M144.8,54.8h-35c-0.7,0-1.3-0.6-1.3-1.3v0c0-0.7,0.6-1.3,1.3-1.3h35c0.7,0,1.3,0.6,1.3,1.3v0
	C146.1,54.3,145.5,54.8,144.8,54.8z"/>
<path class="st0" d="M137.4,48.4h-35c-0.7,0-1.3-0.6-1.3-1.3v0c0-0.7,0.6-1.3,1.3-1.3h35c0.7,0,1.3,0.6,1.3,1.3v0
	C138.7,47.8,138.1,48.4,137.4,48.4z"/>
<path class="st0" d="M90.2,48.4h-35c-0.7,0-1.3-0.6-1.3-1.3v0c0-0.7,0.6-1.3,1.3-1.3h35c0.7,0,1.3,0.6,1.3,1.3v0
	C91.5,47.8,90.9,48.4,90.2,48.4z"/>
<path class="st0" d="M115.7,43h-35c-0.7,0-1.3-0.6-1.3-1.3l0,0c0-0.7,0.6-1.3,1.3-1.3h35c0.7,0,1.3,0.6,1.3,1.3l0,0
	C117,42.4,116.4,43,115.7,43z"/>
<path class="st2" d="M262.6,128.2c0-1.6-1.3-2.8-2.8-2.8h-36.7c-1.6,0-2.8,1.3-2.8,2.8v31.9h42.4V128.2z"/>
<path class="st0" d="M220.3,160.1V171c0,1.6,1.3,2.8,2.8,2.8h36.7c1.6,0,2.8-1.3,2.8-2.8v-10.9H220.3z"/>
<rect x="218.9" y="163.9" style="fill:none;" width="45.1" height="8"/>
<text transform="matrix(1 0 0 1 232.9108 169.6207)" style="font-family:'MyriadPro-Regular'; font-size:8px;">NETS</text>
</svg>
