<?xml version="1.0" encoding="utf-8"?>
<!-- Generator: Adobe Illustrator 23.0.2, SVG Export Plug-In . SVG Version: 6.00 Build 0)  -->
<svg version="1.1" id="Layer_1" xmlns="http://www.w3.org/2000/svg" xmlns:xlink="http://www.w3.org/1999/xlink" x="0px" y="0px"
	 viewBox="0 0 50 30" style="enable-background:new 0 0 50 30;" xml:space="preserve">
<style type="text/css">
	.st0{fill:#B7B7B7;}
</style>
<g>
	<g>
		<g>
			<path class="st0" d="M-10.07,20.84c0,2.16-1.75,3.91-3.91,3.91s-3.91-1.75-3.91-3.91c0,0,0.12-0.49,0.65-0.49
				c0.53,0,0.65,0.49,0.65,0.49c0,1.44,1.17,2.61,2.61,2.61s2.61-1.17,2.61-2.61c0-1.44-1.17-2.61-2.61-2.61h-22.14
				c-0.36,0-0.65-0.29-0.65-0.65s0.29-0.65,0.65-0.65h22.14C-11.82,16.93-10.07,18.68-10.07,20.84z"/>
		</g>
	</g>
	<g>
		<g>
			<path class="st0" d="M-2.94,11.37c0-2.16-1.75-3.91-3.91-3.91s-3.91,1.75-3.91,3.91c0,0,0.12,0.49,0.65,0.49s0.65-0.49,0.65-0.49
				c0-1.44,1.17-2.61,2.61-2.61s2.61,1.17,2.61,2.61c0,1.44-1.17,2.61-2.61,2.61h-22.14c-0.36,0-0.65,0.29-0.65,0.65
				s0.29,0.65,0.65,0.65h22.14C-4.69,15.28-2.94,13.53-2.94,11.37z"/>
		</g>
	</g>
	<g>
		<path class="st0" d="M-33.74,11.37c-0.36,0-0.65,0.29-0.65,0.65c0,0.36,0.29,0.65,0.65,0.65h9.31v-1.3H-33.74z"/>
	</g>
	<g>
		<path class="st0" d="M-16.81,4.86c-2.16,0-3.91,1.75-3.91,3.91c0,0,0.12,0.49,0.65,0.49c0.53,0,0.65-0.49,0.65-0.49
			c0-1.44,1.17-2.61,2.61-2.61s2.61,1.17,2.61,2.61c0,1.44-1.17,2.61-2.61,2.61h-12.83v1.3h12.83c2.16,0,3.91-1.75,3.91-3.91
			S-14.65,4.86-16.81,4.86z"/>
	</g>
</g>
<g>
	<path class="st0" d="M26.3,4.47c-5.65,0-10.24,4.58-10.24,10.24s4.58,10.24,10.24,10.24c5.65,0,10.24-4.58,10.24-10.24
		S31.95,4.47,26.3,4.47z M26.3,24.37c-5.33,0-9.66-4.32-9.66-9.66s4.32-9.66,9.66-9.66s9.66,4.32,9.66,9.66S31.63,24.37,26.3,24.37z
		"/>
	<path class="st0" d="M26.3,5.47c-5.1,0-9.23,4.13-9.23,9.23s4.13,9.23,9.23,9.23s9.23-4.13,9.23-9.23S31.4,5.47,26.3,5.47z
		 M26.3,23.74c-4.99,0-9.03-4.04-9.03-9.03s4.04-9.03,9.03-9.03s9.03,4.04,9.03,9.03S31.29,23.74,26.3,23.74z"/>
	<g>
		<path class="st0" d="M25.14,8.5V6.03h0.61C26.4,7,26.84,7.58,26.99,7.86H27c-0.02-0.28-0.02-0.72-0.02-1.12V6.03h0.48V8.5h-0.58
			c-0.28-0.41-1.12-1.66-1.28-1.95H25.6c0.02,0.31,0.02,0.66,0.02,1.09V8.5H25.14z"/>
	</g>
	<g>
		<path class="st0" d="M18.35,15.72l-0.7-2.4h0.53c0.15,0.57,0.43,1.54,0.49,1.94h0c0.07-0.41,0.36-1.37,0.54-1.94h0.49
			c0.16,0.53,0.47,1.6,0.53,1.93h0.01c0.07-0.41,0.35-1.38,0.5-1.93h0.51l-0.75,2.4h-0.55c-0.16-0.54-0.45-1.54-0.52-1.87h0
			c-0.07,0.38-0.34,1.27-0.52,1.87H18.35z"/>
	</g>
	<g>
		<path class="st0" d="M34.84,14.68h-1.37v0.64h1.52l-0.06,0.41h-1.97v-2.4h1.95v0.41h-1.45v0.54h1.37V14.68z"/>
	</g>
	<g>
		<path class="st0" d="M25.74,22.61c0.07,0.22,0.24,0.37,0.65,0.37c0.39,0,0.52-0.13,0.52-0.3c0-0.18-0.11-0.29-0.64-0.37
			c-0.77-0.13-0.92-0.38-0.92-0.69c0-0.44,0.43-0.68,0.96-0.68c0.78,0,0.98,0.4,1.01,0.66h-0.49c-0.04-0.13-0.12-0.3-0.54-0.3
			c-0.29,0-0.45,0.09-0.45,0.27c0,0.15,0.1,0.24,0.56,0.32c0.87,0.15,1,0.42,1,0.75c0,0.39-0.31,0.71-1.06,0.71
			c-0.7,0-1.03-0.31-1.1-0.73H25.74z"/>
	</g>
	<path class="st0" d="M30.11,8.31l-4.46,5.8l-3.11,6.62l4.48-5.79L30.11,8.31z M26.19,14.76c-0.15-0.09-0.19-0.28-0.1-0.42
		c0.09-0.15,0.28-0.19,0.42-0.1c0.15,0.09,0.19,0.28,0.1,0.42S26.33,14.85,26.19,14.76z"/>
</g>
</svg>
