<?xml version="1.0" encoding="utf-8"?>
<!-- Generator: Adobe Illustrator 23.0.2, SVG Export Plug-In . SVG Version: 6.00 Build 0)  -->
<svg version="1.1" id="Layer_1" xmlns="http://www.w3.org/2000/svg" xmlns:xlink="http://www.w3.org/1999/xlink" x="0px" y="0px"
	 viewBox="0 0 50 30" style="enable-background:new 0 0 50 30;" xml:space="preserve">
<style type="text/css">
	.st0{fill:#B7B7B7;}
</style>
<g>
	<g>
		<g>
			<path class="st0" d="M34.79,21.03c0,2.16-1.75,3.91-3.91,3.91s-3.91-1.75-3.91-3.91c0,0,0.12-0.49,0.65-0.49
				c0.53,0,0.65,0.49,0.65,0.49c0,1.44,1.17,2.61,2.61,2.61c1.44,0,2.61-1.17,2.61-2.61c0-1.44-1.17-2.61-2.61-2.61H8.74
				c-0.36,0-0.65-0.29-0.65-0.65c0-0.36,0.29-0.65,0.65-0.65h22.14C33.04,17.13,34.79,18.88,34.79,21.03z"/>
		</g>
	</g>
	<g>
		<g>
			<path class="st0" d="M41.91,11.57c0-2.16-1.75-3.91-3.91-3.91s-3.91,1.75-3.91,3.91c0,0,0.12,0.49,0.65,0.49
				c0.53,0,0.65-0.49,0.65-0.49c0-1.44,1.17-2.61,2.61-2.61s2.61,1.17,2.61,2.61c0,1.44-1.17,2.61-2.61,2.61H15.86
				c-0.36,0-0.65,0.29-0.65,0.65c0,0.36,0.29,0.65,0.65,0.65h22.14C40.16,15.48,41.91,13.73,41.91,11.57z"/>
		</g>
	</g>
	<g>
		<path class="st0" d="M11.11,11.57c-0.36,0-0.65,0.29-0.65,0.65s0.29,0.65,0.65,0.65h9.31v-1.3H11.11z"/>
	</g>
	<g>
		<path class="st0" d="M28.05,5.06c-2.16,0-3.91,1.75-3.91,3.91c0,0,0.12,0.49,0.65,0.49s0.65-0.49,0.65-0.49
			c0-1.44,1.17-2.61,2.61-2.61c1.44,0,2.61,1.17,2.61,2.61c0,1.44-1.17,2.61-2.61,2.61H15.21v1.3h12.83c2.16,0,3.91-1.75,3.91-3.91
			S30.2,5.06,28.05,5.06z"/>
	</g>
</g>
</svg>
