<?xml version="1.0" encoding="utf-8"?>
<!-- Generator: Adobe Illustrator 23.0.2, SVG Export Plug-In . SVG Version: 6.00 Build 0)  -->
<svg version="1.1" id="Layer_1" xmlns="http://www.w3.org/2000/svg" xmlns:xlink="http://www.w3.org/1999/xlink" x="0px" y="0px"
	 viewBox="0 0 76.71 94.32" style="enable-background:new 0 0 76.71 94.32;" xml:space="preserve">
<style type="text/css">
	.st0{fill:#FFFFFF;}
</style>
<g>
	<g>
		<path class="st0" d="M49.41,29.96c0-0.14,0-0.23,0-0.23S49.41,29.82,49.41,29.96L49.41,29.96z"/>
	</g>
	<g>
		<path class="st0" d="M49.32,31.62c0.01-0.14,0.02-0.27,0.03-0.39c0-0.02,0-0.05,0-0.06c0.01-0.14,0.02-0.27,0.02-0.39
			c0-0.03,0-0.05,0-0.08c0-0.09,0.01-0.17,0.01-0.25c0-0.03,0-0.07,0-0.1c0-0.06,0-0.12,0.01-0.17c0-0.08,0-0.16,0.01-0.21
			c0-0.08,0-0.15,0-0.23c0-12.21-9.91-22.11-22.12-22.11S5.18,17.52,5.18,29.74c0,0,0,0.07,0,0.2c0.01,0.35,0.05,1.15,0.14,2.32
			c0,0.02,0,0.03,0,0.05C5.98,40.28,9.4,65.29,27.3,86.69c17.9-21.4,21.32-46.41,21.97-54.38c0-0.02,0-0.03,0-0.05
			c0.01-0.19,0.03-0.36,0.04-0.52C49.32,31.69,49.32,31.66,49.32,31.62z M27.3,48.07c-10.12,0-18.33-8.21-18.33-18.33
			s8.21-18.33,18.33-18.33s18.33,8.21,18.33,18.33C45.63,39.86,37.42,48.07,27.3,48.07z"/>
	</g>
</g>
</svg>
