<?xml version="1.0" encoding="utf-8"?>
<!-- Generator: Adobe Illustrator 23.0.2, SVG Export Plug-In . SVG Version: 6.00 Build 0)  -->
<svg version="1.1" id="Layer_1" xmlns="http://www.w3.org/2000/svg" xmlns:xlink="http://www.w3.org/1999/xlink" x="0px" y="0px"
	 viewBox="0 0 76.7 94.3" style="enable-background:new 0 0 76.7 94.3;" xml:space="preserve">
<style type="text/css">
	.st0{fill:#FFFFFF;}
</style>
<g>
	<g>
		<path class="st0" d="M60.5,30c0-0.1,0-0.2,0-0.2S60.5,29.8,60.5,30L60.5,30z"/>
	</g>
	<g>
		<path class="st0" d="M60.4,31.6c0-0.1,0-0.3,0-0.4c0,0,0,0,0-0.1c0-0.1,0-0.3,0-0.4c0,0,0,0,0-0.1c0-0.1,0-0.2,0-0.3
			c0,0,0-0.1,0-0.1c0-0.1,0-0.1,0-0.2c0-0.1,0-0.2,0-0.2c0-0.1,0-0.2,0-0.2c0-12.2-9.9-22.1-22.1-22.1s-22.1,9.9-22.1,22.1
			c0,0,0,0.1,0,0.2c0,0.3,0,1.1,0.1,2.3c0,0,0,0,0,0c0.7,8,4.1,33,22,54.4c17.9-21.4,21.3-46.4,22-54.4c0,0,0,0,0,0
			c0-0.2,0-0.4,0-0.5C60.4,31.7,60.4,31.7,60.4,31.6z M38.4,48.1C28.2,48.1,20,39.9,20,29.7s8.2-18.3,18.3-18.3s18.3,8.2,18.3,18.3
			C56.7,39.9,48.5,48.1,38.4,48.1z"/>
	</g>
</g>
</svg>
