<?xml version="1.0" encoding="utf-8"?>
<!-- Generator: Adobe Illustrator 23.0.2, SVG Export Plug-In . SVG Version: 6.00 Build 0)  -->
<svg version="1.1" id="Layer_1" xmlns="http://www.w3.org/2000/svg" xmlns:xlink="http://www.w3.org/1999/xlink" x="0px" y="0px"
	 viewBox="0 0 200 91.18" style="enable-background:new 0 0 200 91.18;" xml:space="preserve">
<style type="text/css">
	.st0{fill:#FFFFFF;}
	.st1{fill:#B7B7B7;}
</style>
<path class="st0" d="M111.78,48.82c0,7.33-5.95,13.28-13.28,13.28l-29.02-0.15c-14.28,0-25.85-11.58-25.85-25.85
	c0-14.28,11.58-25.86,25.85-25.86c14.22,0,25.75,11.48,25.85,25.68c1.01-0.25,2.08-0.38,3.17-0.38
	C105.83,35.53,111.78,41.48,111.78,48.82z"/>
<path class="st1" d="M163.99,130.85L175.33,112c0.34-0.57,1.08-0.75,1.65-0.41l0,0c0.57,0.34,0.75,1.08,0.41,1.65l-11.34,18.85
	c-0.34,0.57-1.08,0.75-1.65,0.41l0,0C163.83,132.17,163.64,131.43,163.99,130.85z"/>
<path class="st0" d="M49.51,83.83l11.34-18.85c0.34-0.57,1.08-0.75,1.65-0.41l0,0c0.57,0.34,0.75,1.08,0.41,1.65L51.57,85.08
	c-0.34,0.57-1.08,0.75-1.65,0.41l0,0C49.35,85.14,49.16,84.4,49.51,83.83z"/>
<path class="st1" d="M147.95,154.83l11.34-18.85c0.34-0.57,1.08-0.75,1.65-0.41l0,0c0.57,0.34,0.75,1.08,0.41,1.65l-11.34,18.85
	c-0.34,0.57-1.08,0.75-1.65,0.41l0,0C147.79,156.14,147.6,155.4,147.95,154.83z"/>
<path class="st0" d="M90.03,84.13l11.34-18.85c0.34-0.57,1.08-0.75,1.65-0.41l0,0c0.57,0.34,0.75,1.08,0.41,1.65L92.1,85.37
	c-0.34,0.57-1.08,0.75-1.65,0.41l0,0C89.87,85.44,89.69,84.7,90.03,84.13z"/>
<path class="st0" d="M69.77,84.13l11.34-18.85c0.34-0.57,1.08-0.75,1.65-0.41l0,0c0.57,0.34,0.75,1.08,0.41,1.65L71.83,85.37
	c-0.34,0.57-1.08,0.75-1.65,0.41h0C69.61,85.44,69.42,84.7,69.77,84.13z"/>
</svg>
