<?xml version="1.0" encoding="utf-8"?>
<!-- Generator: Adobe Illustrator 23.0.2, SVG Export Plug-In . SVG Version: 6.00 Build 0)  -->
<svg version="1.1" id="Layer_1" xmlns="http://www.w3.org/2000/svg" xmlns:xlink="http://www.w3.org/1999/xlink" x="0px" y="0px"
	 viewBox="0 0 200 91.2" style="enable-background:new 0 0 200 91.2;" xml:space="preserve">
<style type="text/css">
	.st0{fill:#B7B7B7;}
	.st1{fill:#FFFFFF;}
</style>
<path class="st0" d="M164,130.9l11.3-18.9c0.3-0.6,1.1-0.8,1.6-0.4l0,0c0.6,0.3,0.8,1.1,0.4,1.7l-11.3,18.8
	c-0.3,0.6-1.1,0.8-1.6,0.4l0,0C163.8,132.2,163.6,131.4,164,130.9z"/>
<path class="st0" d="M147.9,154.8l11.3-18.9c0.3-0.6,1.1-0.8,1.6-0.4l0,0c0.6,0.3,0.8,1.1,0.4,1.6L150,156.1
	c-0.3,0.6-1.1,0.8-1.6,0.4l0,0C147.8,156.1,147.6,155.4,147.9,154.8z"/>
<g>
	<path class="st1" d="M134.1,46.3c0,7.3-5.9,13.3-13.3,13.3l-29-0.2c-14.3,0-25.8-11.6-25.8-25.8c0-14.3,11.6-25.9,25.8-25.9
		c14.2,0,25.8,11.5,25.9,25.7c1-0.3,2.1-0.4,3.2-0.4C128.1,33,134.1,39,134.1,46.3z"/>
	<path class="st1" d="M71.8,81.3l11.3-18.8c0.3-0.6,1.1-0.8,1.6-0.4l0,0c0.6,0.3,0.8,1.1,0.4,1.7L73.9,82.6
		c-0.3,0.6-1.1,0.8-1.7,0.4l0,0C71.6,82.6,71.5,81.9,71.8,81.3z"/>
	<path class="st1" d="M112.3,81.6l11.3-18.8c0.3-0.6,1.1-0.8,1.7-0.4l0,0c0.6,0.3,0.8,1.1,0.4,1.7l-11.3,18.9
		c-0.3,0.6-1.1,0.8-1.7,0.4l0,0C112.2,82.9,112,82.2,112.3,81.6z"/>
	<path class="st1" d="M92.1,81.6l11.3-18.8c0.3-0.6,1.1-0.8,1.7-0.4l0,0c0.6,0.3,0.8,1.1,0.4,1.7L94.1,82.9
		c-0.3,0.6-1.1,0.8-1.6,0.4l0,0C91.9,82.9,91.7,82.2,92.1,81.6z"/>
</g>
</svg>
