<?xml version="1.0" encoding="utf-8"?>
<!-- Generator: Adobe Illustrator 23.0.2, SVG Export Plug-In . SVG Version: 6.00 Build 0)  -->
<svg version="1.1" id="Layer_1" xmlns="http://www.w3.org/2000/svg" xmlns:xlink="http://www.w3.org/1999/xlink" x="0px" y="0px"
	 viewBox="0 0 50 50" style="enable-background:new 0 0 50 50;" xml:space="preserve">
<style type="text/css">
	.st0{fill:#FFFFFF;}
</style>
<g>
	<path class="st0" d="M46.6,45.5L30.1,26.6c2.4-2.7,3.8-6.2,3.8-10.1C33.9,7.9,26.9,1,18.4,1S2.9,7.9,2.9,16.5
		C2.9,25.1,9.8,32,18.4,32c3.2,0,6.1-0.9,8.6-2.6l16.5,18.9c0.4,0.5,1,0.7,1.6,0.7c0.5,0,1-0.2,1.4-0.5
		C47.3,47.7,47.4,46.4,46.6,45.5z M18.4,27.8c-6.2,0-11.3-5-11.3-11.3c0-6.2,5-11.3,11.3-11.3s11.3,5,11.3,11.3
		C29.6,22.7,24.6,27.8,18.4,27.8z"/>
</g>
</svg>
