<?xml version="1.0" encoding="utf-8"?>
<!-- Generator: Adobe Illustrator 23.0.2, SVG Export Plug-In . SVG Version: 6.00 Build 0)  -->
<svg version="1.1" id="Layer_1" xmlns="http://www.w3.org/2000/svg" xmlns:xlink="http://www.w3.org/1999/xlink" x="0px" y="0px"
	 viewBox="0 0 200 91.2" style="enable-background:new 0 0 200 91.2;" xml:space="preserve">
<style type="text/css">
	.st0{fill:#B7B7B7;}
	.st1{fill:none;stroke:#FFFFFF;stroke-width:3;stroke-miterlimit:10;}
	.st2{fill:#FFFFFF;}
</style>
<path class="st0" d="M164,130.9l11.3-18.9c0.3-0.6,1.1-0.8,1.6-0.4l0,0c0.6,0.3,0.8,1.1,0.4,1.7l-11.3,18.8
	c-0.3,0.6-1.1,0.8-1.6,0.4l0,0C163.8,132.2,163.6,131.4,164,130.9z"/>
<path class="st0" d="M-5.5,158l0-22c0-0.7,0.5-1.2,1.2-1.2l0,0c0.7,0,1.2,0.5,1.2,1.2l0,22c0,0.7-0.5,1.2-1.2,1.2l0,0
	C-5,159.2-5.5,158.7-5.5,158z"/>
<path class="st0" d="M-52.8,159l0-22c0-0.7,0.5-1.2,1.2-1.2l0,0c0.7,0,1.2,0.5,1.2,1.2l0,22c0,0.7-0.5,1.2-1.2,1.2l0,0
	C-52.3,160.3-52.8,159.7-52.8,159z"/>
<g>
	<g>
		<line class="st1" x1="-93.2" y1="87.3" x2="-93.2" y2="99.2"/>
		<path class="st1" d="M-93.2,99.9c-0.3,0-0.6-0.3-0.6-0.6v-12c0-0.3,0.3-0.6,0.6-0.6s0.6,0.3,0.6,0.6v12
			C-92.6,99.6-92.8,99.9-93.2,99.9z"/>
	</g>
	<g>
		<line class="st1" x1="-93.2" y1="99.6" x2="-93.2" y2="118"/>
		<path class="st1" d="M-93.2,118.9c-0.3,0-0.6-0.4-0.6-0.9V99.6c0-0.5,0.3-0.9,0.6-0.9s0.6,0.4,0.6,0.9V118
			C-92.6,118.5-92.8,118.9-93.2,118.9z"/>
	</g>
	<g>
		<line class="st1" x1="-101.7" y1="90.8" x2="-93.2" y2="99.2"/>
		<path class="st1" d="M-93.2,99.9c-0.2,0-0.3-0.1-0.4-0.2l-8.5-8.5c-0.2-0.2-0.2-0.6,0-0.9c0.2-0.2,0.6-0.2,0.9,0l8.5,8.5
			c0.2,0.2,0.2,0.6,0,0.9C-92.9,99.8-93,99.9-93.2,99.9z"/>
	</g>
	<g>
		<line class="st1" x1="-84.7" y1="90.8" x2="-93.2" y2="99.2"/>
		<path class="st1" d="M-93.2,99.9c-0.2,0-0.3-0.1-0.4-0.2c-0.2-0.2-0.2-0.6,0-0.9l8.5-8.5c0.2-0.2,0.6-0.2,0.9,0
			c0.2,0.2,0.2,0.6,0,0.9l-8.5,8.5C-92.9,99.8-93,99.9-93.2,99.9z"/>
	</g>
</g>
<g>
	<g>
		<line class="st1" x1="-71.3" y1="96.4" x2="-79.7" y2="104.9"/>
		<path class="st1" d="M-80.2,105.3c-0.2-0.2-0.2-0.6,0-0.9l8.5-8.5c0.2-0.2,0.6-0.2,0.9,0c0.2,0.2,0.2,0.6,0,0.9l-8.5,8.5
			C-79.5,105.6-79.9,105.6-80.2,105.3z"/>
	</g>
	<g>
		<line class="st1" x1="-80" y1="105.1" x2="-93" y2="118.1"/>
		<path class="st1" d="M-93.7,118.8c-0.2-0.2-0.1-0.7,0.2-1.1l13-13c0.4-0.4,0.9-0.5,1.1-0.2c0.2,0.2,0.1,0.7-0.2,1.1l-13,13
			C-92.9,118.9-93.4,119-93.7,118.8z"/>
	</g>
	<g>
		<line class="st1" x1="-79.7" y1="92.9" x2="-79.7" y2="104.9"/>
		<path class="st1" d="M-80.2,105.3c-0.1-0.1-0.2-0.3-0.2-0.4l0-12c0-0.3,0.3-0.6,0.6-0.6c0.3,0,0.6,0.3,0.6,0.6v12
			c0,0.3-0.3,0.6-0.6,0.6C-79.9,105.5-80.1,105.4-80.2,105.3z"/>
	</g>
	<g>
		<line class="st1" x1="-67.8" y1="104.9" x2="-79.7" y2="104.9"/>
		<path class="st1" d="M-80.2,105.3c-0.1-0.1-0.2-0.3-0.2-0.4c0-0.3,0.3-0.6,0.6-0.6h12c0.3,0,0.6,0.3,0.6,0.6
			c0,0.3-0.3,0.6-0.6,0.6l-12,0C-79.9,105.5-80.1,105.4-80.2,105.3z"/>
	</g>
</g>
<g>
	<g>
		<line class="st1" x1="-62.2" y1="118.4" x2="-74.2" y2="118.4"/>
		<path class="st1" d="M-74.8,118.4c0-0.3,0.3-0.6,0.6-0.6h12c0.3,0,0.6,0.3,0.6,0.6s-0.3,0.6-0.6,0.6h-12
			C-74.6,119-74.8,118.7-74.8,118.4z"/>
	</g>
	<g>
		<line class="st1" x1="-74.5" y1="118.4" x2="-93" y2="118.4"/>
		<path class="st1" d="M-93.9,118.4c0-0.3,0.4-0.6,0.9-0.6h18.4c0.5,0,0.9,0.3,0.9,0.6s-0.4,0.6-0.9,0.6H-93
			C-93.5,119-93.9,118.7-93.9,118.4z"/>
	</g>
	<g>
		<line class="st1" x1="-65.7" y1="109.9" x2="-74.2" y2="118.4"/>
		<path class="st1" d="M-74.8,118.4c0-0.2,0.1-0.3,0.2-0.4l8.5-8.5c0.2-0.2,0.6-0.2,0.9,0c0.2,0.2,0.2,0.6,0,0.9l-8.5,8.5
			c-0.2,0.2-0.6,0.2-0.9,0C-74.8,118.7-74.8,118.5-74.8,118.4z"/>
	</g>
	<g>
		<line class="st1" x1="-65.7" y1="126.8" x2="-74.2" y2="118.4"/>
		<path class="st1" d="M-74.8,118.4c0-0.2,0.1-0.3,0.2-0.4c0.2-0.2,0.6-0.2,0.9,0l8.5,8.5c0.2,0.2,0.2,0.6,0,0.9
			c-0.2,0.2-0.6,0.2-0.9,0l-8.5-8.5C-74.8,118.7-74.8,118.5-74.8,118.4z"/>
	</g>
</g>
<g>
	<g>
		<line class="st1" x1="-71.1" y1="140.3" x2="-79.6" y2="131.8"/>
		<path class="st1" d="M-80.1,131.4c0.2-0.2,0.6-0.2,0.9,0l8.5,8.5c0.2,0.2,0.2,0.6,0,0.9c-0.2,0.2-0.6,0.2-0.9,0l-8.5-8.5
			C-80.3,132-80.3,131.6-80.1,131.4z"/>
	</g>
	<g>
		<line class="st1" x1="-79.9" y1="131.6" x2="-92.9" y2="118.5"/>
		<path class="st1" d="M-93.5,117.9c0.2-0.2,0.7-0.1,1.1,0.2l13,13c0.4,0.4,0.5,0.9,0.2,1.1c-0.2,0.2-0.7,0.1-1.1-0.2l-13-13
			C-93.7,118.6-93.8,118.1-93.5,117.9z"/>
	</g>
	<g>
		<line class="st1" x1="-67.6" y1="131.8" x2="-79.6" y2="131.8"/>
		<path class="st1" d="M-80.1,131.4c0.1-0.1,0.3-0.2,0.4-0.2l12,0c0.3,0,0.6,0.3,0.6,0.6c0,0.3-0.3,0.6-0.6,0.6h-12
			c-0.3,0-0.6-0.3-0.6-0.6C-80.2,131.6-80.2,131.5-80.1,131.4z"/>
	</g>
	<g>
		<line class="st1" x1="-79.6" y1="143.8" x2="-79.6" y2="131.8"/>
		<path class="st1" d="M-80.1,131.4c0.1-0.1,0.3-0.2,0.4-0.2c0.3,0,0.6,0.3,0.6,0.6v12c0,0.3-0.3,0.6-0.6,0.6
			c-0.3,0-0.6-0.3-0.6-0.6l0-12C-80.2,131.6-80.2,131.5-80.1,131.4z"/>
	</g>
</g>
<g>
	<g>
		<line class="st1" x1="-93.2" y1="149.4" x2="-93.2" y2="137.4"/>
		<path class="st1" d="M-93.2,136.8c0.3,0,0.6,0.3,0.6,0.6v12c0,0.3-0.3,0.6-0.6,0.6s-0.6-0.3-0.6-0.6v-12
			C-93.8,137.1-93.5,136.8-93.2,136.8z"/>
	</g>
	<g>
		<line class="st1" x1="-93.2" y1="137.1" x2="-93.2" y2="118.7"/>
		<path class="st1" d="M-93.2,117.8c0.3,0,0.6,0.4,0.6,0.9v18.4c0,0.5-0.3,0.9-0.6,0.9s-0.6-0.4-0.6-0.9v-18.4
			C-93.8,118.2-93.5,117.8-93.2,117.8z"/>
	</g>
	<g>
		<line class="st1" x1="-84.7" y1="145.9" x2="-93.2" y2="137.4"/>
		<path class="st1" d="M-93.2,136.8c0.2,0,0.3,0.1,0.4,0.2l8.5,8.5c0.2,0.2,0.2,0.6,0,0.9c-0.2,0.2-0.6,0.2-0.9,0l-8.5-8.5
			c-0.2-0.2-0.2-0.6,0-0.9C-93.5,136.9-93.3,136.8-93.2,136.8z"/>
	</g>
	<g>
		<line class="st1" x1="-101.7" y1="145.9" x2="-93.2" y2="137.4"/>
		<path class="st1" d="M-93.2,136.8c0.2,0,0.3,0.1,0.4,0.2c0.2,0.2,0.2,0.6,0,0.9l-8.5,8.5c-0.2,0.2-0.6,0.2-0.9,0
			c-0.2-0.2-0.2-0.6,0-0.9l8.5-8.5C-93.5,136.9-93.3,136.8-93.2,136.8z"/>
	</g>
</g>
<g>
	<g>
		<line class="st1" x1="-115.4" y1="140.4" x2="-106.9" y2="131.9"/>
		<path class="st1" d="M-106.5,131.5c0.2,0.2,0.2,0.6,0,0.9l-8.5,8.5c-0.2,0.2-0.6,0.2-0.9,0c-0.2-0.2-0.2-0.6,0-0.9l8.5-8.5
			C-107.1,131.3-106.7,131.3-106.5,131.5z"/>
	</g>
	<g>
		<line class="st1" x1="-106.7" y1="131.7" x2="-93.7" y2="118.7"/>
		<path class="st1" d="M-93,118c0.2,0.2,0.1,0.7-0.2,1.1l-13,13c-0.4,0.4-0.9,0.5-1.1,0.2c-0.2-0.2-0.1-0.7,0.2-1.1l13-13
			C-93.7,117.9-93.2,117.8-93,118z"/>
	</g>
	<g>
		<line class="st1" x1="-106.9" y1="143.9" x2="-106.9" y2="131.9"/>
		<path class="st1" d="M-106.5,131.5c0.1,0.1,0.2,0.3,0.2,0.4l0,12c0,0.3-0.3,0.6-0.6,0.6c-0.3,0-0.6-0.3-0.6-0.6v-12
			c0-0.3,0.3-0.6,0.6-0.6C-106.8,131.3-106.6,131.4-106.5,131.5z"/>
	</g>
	<g>
		<line class="st1" x1="-118.9" y1="131.9" x2="-106.9" y2="131.9"/>
		<path class="st1" d="M-106.5,131.5c0.1,0.1,0.2,0.3,0.2,0.4c0,0.3-0.3,0.6-0.6,0.6h-12c-0.3,0-0.6-0.3-0.6-0.6
			c0-0.3,0.3-0.6,0.6-0.6l12,0C-106.8,131.3-106.6,131.4-106.5,131.5z"/>
	</g>
</g>
<g>
	<g>
		<line class="st1" x1="-124.2" y1="118.4" x2="-112.3" y2="118.4"/>
		<path class="st1" d="M-111.6,118.4c0,0.3-0.3,0.6-0.6,0.6h-12c-0.3,0-0.6-0.3-0.6-0.6s0.3-0.6,0.6-0.6h12
			C-111.9,117.8-111.6,118-111.6,118.4z"/>
	</g>
	<g>
		<line class="st1" x1="-111.9" y1="118.4" x2="-93.5" y2="118.4"/>
		<path class="st1" d="M-92.6,118.4c0,0.3-0.4,0.6-0.9,0.6h-18.4c-0.5,0-0.9-0.3-0.9-0.6s0.4-0.6,0.9-0.6h18.4
			C-93,117.8-92.6,118-92.6,118.4z"/>
	</g>
	<g>
		<line class="st1" x1="-120.7" y1="126.8" x2="-112.3" y2="118.4"/>
		<path class="st1" d="M-111.6,118.4c0,0.2-0.1,0.3-0.2,0.4l-8.5,8.5c-0.2,0.2-0.6,0.2-0.9,0c-0.2-0.2-0.2-0.6,0-0.9l8.5-8.5
			c0.2-0.2,0.6-0.2,0.9,0C-111.7,118.1-111.6,118.2-111.6,118.4z"/>
	</g>
	<g>
		<line class="st1" x1="-120.7" y1="109.9" x2="-112.3" y2="118.4"/>
		<path class="st1" d="M-111.6,118.4c0,0.2-0.1,0.3-0.2,0.4c-0.2,0.2-0.6,0.2-0.9,0l-8.5-8.5c-0.2-0.2-0.2-0.6,0-0.9
			c0.2-0.2,0.6-0.2,0.9,0l8.5,8.5C-111.7,118.1-111.6,118.2-111.6,118.4z"/>
	</g>
</g>
<g>
	<g>
		<line class="st1" x1="-115.4" y1="96.3" x2="-106.9" y2="104.8"/>
		<path class="st1" d="M-106.5,105.2c-0.2,0.2-0.6,0.2-0.9,0l-8.5-8.5c-0.2-0.2-0.2-0.6,0-0.9s0.6-0.2,0.9,0l8.5,8.5
			C-106.3,104.6-106.3,105-106.5,105.2z"/>
	</g>
	<g>
		<line class="st1" x1="-106.7" y1="105" x2="-93.7" y2="118"/>
		<path class="st1" d="M-93,118.7c-0.2,0.2-0.7,0.1-1.1-0.2l-13-13c-0.4-0.4-0.5-0.9-0.2-1.1s0.7-0.1,1.1,0.2l13,13
			C-92.9,118-92.8,118.4-93,118.7z"/>
	</g>
	<g>
		<line class="st1" x1="-118.9" y1="104.8" x2="-106.9" y2="104.8"/>
		<path class="st1" d="M-106.5,105.2c-0.1,0.1-0.3,0.2-0.4,0.2l-12,0c-0.3,0-0.6-0.3-0.6-0.6c0-0.3,0.3-0.6,0.6-0.6h12
			c0.3,0,0.6,0.3,0.6,0.6C-106.3,104.9-106.4,105.1-106.5,105.2z"/>
	</g>
	<g>
		<line class="st1" x1="-106.9" y1="92.8" x2="-106.9" y2="104.8"/>
		<path class="st1" d="M-106.5,105.2c-0.1,0.1-0.3,0.2-0.4,0.2c-0.3,0-0.6-0.3-0.6-0.6v-12c0-0.3,0.3-0.6,0.6-0.6
			c0.3,0,0.6,0.3,0.6,0.6l0,12C-106.3,104.9-106.4,105.1-106.5,105.2z"/>
	</g>
</g>
<g>
	<path class="st2" d="M130.2,46.3c0,7.3-5.9,13.3-13.3,13.3l-29-0.2C73.6,59.4,62,47.9,62,33.6C62,19.3,73.6,7.7,87.9,7.7
		c14.2,0,25.8,11.5,25.8,25.7c1-0.3,2.1-0.4,3.2-0.4C124.2,33,130.2,39,130.2,46.3z"/>
	<path class="st2" d="M138,24.4c0,2.3-1.9,4.2-4.2,4.2l-9.1,0c-4.5,0-8.1-3.6-8.1-8.1c0-4.5,3.6-8.1,8.1-8.1c4.4,0,8.1,3.6,8.1,8
		c0.3-0.1,0.7-0.1,1-0.1C136.1,20.3,138,22.1,138,24.4z"/>
	<g>
		<path class="st2" d="M74.1,68L74.1,68c0-0.4,0.3-0.7,0.7-0.7h12.5c0.4,0,0.7,0.3,0.7,0.7l0,0c0,0.4-0.3,0.7-0.7,0.7H74.8
			C74.4,68.7,74.1,68.4,74.1,68z"/>
		<path class="st2" d="M81,74.9L81,74.9c-0.4,0-0.7-0.3-0.7-0.7V61.8c0-0.4,0.3-0.7,0.7-0.7h0c0.4,0,0.7,0.3,0.7,0.7v12.5
			C81.7,74.6,81.4,74.9,81,74.9z"/>
		<path class="st2" d="M76.1,72.9L76.1,72.9c-0.3-0.3-0.3-0.7,0-1l8.8-8.8c0.3-0.3,0.7-0.3,1,0l0,0c0.3,0.3,0.3,0.7,0,1l-8.8,8.8
			C76.8,73.2,76.4,73.2,76.1,72.9z"/>
		<path class="st2" d="M76.1,63.1L76.1,63.1c0.3-0.3,0.7-0.3,1,0l8.8,8.8c0.3,0.3,0.3,0.7,0,1l0,0c-0.3,0.3-0.7,0.3-1,0l-8.8-8.8
			C75.8,63.8,75.8,63.4,76.1,63.1z"/>
		<path class="st2" d="M78.8,73.9L78.8,73.9c-0.3-0.3-0.3-0.7,0-1l1.7-1.7c0.3-0.3,0.7-0.3,1,0l0,0c0.3,0.3,0.3,0.7,0,1l-1.7,1.7
			C79.5,74.1,79.1,74.1,78.8,73.9z"/>
		<g>
			<path class="st2" d="M78.8,62L78.8,62c-0.3,0.3-0.3,0.7,0,1l1.7,1.7c0.3,0.3,0.7,0.3,1,0l0,0c0.3-0.3,0.3-0.7,0-1L79.8,62
				C79.5,61.7,79.1,61.7,78.8,62z"/>
			<path class="st2" d="M83.2,62L83.2,62c0.3,0.3,0.3,0.7,0,1l-1.7,1.7c-0.3,0.3-0.7,0.3-1,0l0,0c-0.3-0.3-0.3-0.7,0-1l1.7-1.7
				C82.5,61.7,82.9,61.7,83.2,62z"/>
		</g>
		<g>
			<path class="st2" d="M86.9,65.8L86.9,65.8c-0.3-0.3-0.7-0.3-1,0l-1.7,1.7c-0.3,0.3-0.3,0.7,0,1l0,0c0.3,0.3,0.7,0.3,1,0l1.7-1.7
				C87.1,66.5,87.1,66.1,86.9,65.8z"/>
			<path class="st2" d="M86.9,70.2L86.9,70.2c-0.3,0.3-0.7,0.3-1,0l-1.7-1.7c-0.3-0.3-0.3-0.7,0-1l0,0c0.3-0.3,0.7-0.3,1,0l1.7,1.7
				C87.1,69.5,87.1,69.9,86.9,70.2z"/>
		</g>
		<g>
			<path class="st2" d="M74.8,65.8L74.8,65.8c0.3-0.3,0.7-0.3,1,0l1.7,1.7c0.3,0.3,0.3,0.7,0,1l0,0c-0.3,0.3-0.7,0.3-1,0l-1.7-1.7
				C74.5,66.5,74.5,66.1,74.8,65.8z"/>
			<path class="st2" d="M74.8,70.2L74.8,70.2c0.3,0.3,0.7,0.3,1,0l1.7-1.7c0.3-0.3,0.3-0.7,0-1l0,0c-0.3-0.3-0.7-0.3-1,0l-1.7,1.7
				C74.5,69.5,74.5,69.9,74.8,70.2z"/>
		</g>
		<g>
			<path class="st2" d="M78.8,73.9L78.8,73.9c-0.3-0.3-0.3-0.7,0-1l1.7-1.7c0.3-0.3,0.7-0.3,1,0l0,0c0.3,0.3,0.3,0.7,0,1l-1.7,1.7
				C79.5,74.1,79.1,74.1,78.8,73.9z"/>
			<path class="st2" d="M83.2,73.9L83.2,73.9c0.3-0.3,0.3-0.7,0-1l-1.7-1.7c-0.3-0.3-0.7-0.3-1,0l0,0c-0.3,0.3-0.3,0.7,0,1l1.7,1.7
				C82.5,74.1,82.9,74.1,83.2,73.9z"/>
		</g>
	</g>
	<g>
		<path class="st2" d="M106.9,71.4v-0.3c0-0.2,0.2-0.4,0.4-0.4h9.7c0.2,0,0.4,0.2,0.4,0.4v0.3c0,0.2-0.2,0.4-0.4,0.4h-9.7
			C107,71.8,106.9,71.6,106.9,71.4z"/>
		<path class="st2" d="M112.2,76.5H112c-0.2,0-0.4-0.2-0.4-0.4v-9.7c0-0.2,0.2-0.4,0.4-0.4h0.3c0.2,0,0.4,0.2,0.4,0.4v9.7
			C112.6,76.3,112.4,76.5,112.2,76.5z"/>
		<path class="st2" d="M108.5,75.1l-0.2-0.2c-0.1-0.1-0.1-0.4,0-0.5l6.9-6.9c0.1-0.1,0.4-0.1,0.5,0l0.2,0.2c0.1,0.1,0.1,0.4,0,0.5
			l-6.9,6.9C108.9,75.2,108.6,75.2,108.5,75.1z"/>
		<path class="st2" d="M108.3,67.7l0.2-0.2c0.1-0.1,0.4-0.1,0.5,0l6.9,6.9c0.1,0.1,0.1,0.4,0,0.5l-0.2,0.2c-0.1,0.1-0.4,0.1-0.5,0
			l-6.9-6.9C108.1,68.1,108.1,67.8,108.3,67.7z"/>
		<path class="st2" d="M110.5,75.8l-0.2-0.2c-0.1-0.1-0.1-0.4,0-0.5l1.5-1.5c0.1-0.1,0.4-0.1,0.5,0l0.2,0.2c0.1,0.1,0.1,0.4,0,0.5
			l-1.5,1.5C110.9,76,110.7,76,110.5,75.8z"/>
		<g>
			<path class="st2" d="M110.5,66.6l-0.2,0.2c-0.1,0.1-0.1,0.4,0,0.5l1.5,1.5c0.1,0.1,0.4,0.1,0.5,0l0.2-0.2c0.1-0.1,0.1-0.4,0-0.5
				l-1.5-1.5C110.9,66.5,110.7,66.5,110.5,66.6z"/>
			<path class="st2" d="M113.7,66.6l0.2,0.2c0.1,0.1,0.1,0.4,0,0.5l-1.5,1.5c-0.1,0.1-0.4,0.1-0.5,0l-0.2-0.2
				c-0.1-0.1-0.1-0.4,0-0.5l1.5-1.5C113.3,66.5,113.5,66.5,113.7,66.6z"/>
		</g>
		<g>
			<path class="st2" d="M116.6,69.7l-0.2-0.2c-0.1-0.1-0.4-0.1-0.5,0l-1.5,1.5c-0.1,0.1-0.1,0.4,0,0.5l0.2,0.2
				c0.1,0.1,0.4,0.1,0.5,0l1.5-1.5C116.8,70.1,116.8,69.9,116.6,69.7z"/>
			<path class="st2" d="M116.6,72.8l-0.2,0.2c-0.1,0.1-0.4,0.1-0.5,0l-1.5-1.5c-0.1-0.1-0.1-0.4,0-0.5l0.2-0.2
				c0.1-0.1,0.4-0.1,0.5,0l1.5,1.5C116.8,72.5,116.8,72.7,116.6,72.8z"/>
		</g>
		<g>
			<path class="st2" d="M107.3,69.7l0.2-0.2c0.1-0.1,0.4-0.1,0.5,0l1.5,1.5c0.1,0.1,0.1,0.4,0,0.5l-0.2,0.2c-0.1,0.1-0.4,0.1-0.5,0
				l-1.5-1.5C107.1,70.1,107.1,69.9,107.3,69.7z"/>
			<path class="st2" d="M107.3,72.8l0.2,0.2c0.1,0.1,0.4,0.1,0.5,0l1.5-1.5c0.1-0.1,0.1-0.4,0-0.5l-0.2-0.2c-0.1-0.1-0.4-0.1-0.5,0
				l-1.5,1.5C107.1,72.5,107.1,72.7,107.3,72.8z"/>
		</g>
		<g>
			<path class="st2" d="M110.5,75.8l-0.2-0.2c-0.1-0.1-0.1-0.4,0-0.5l1.5-1.5c0.1-0.1,0.4-0.1,0.5,0l0.2,0.2c0.1,0.1,0.1,0.4,0,0.5
				l-1.5,1.5C110.9,76,110.7,76,110.5,75.8z"/>
			<path class="st2" d="M113.7,75.8l0.2-0.2c0.1-0.1,0.1-0.4,0-0.5l-1.5-1.5c-0.1-0.1-0.4-0.1-0.5,0l-0.2,0.2
				c-0.1,0.1-0.1,0.4,0,0.5l1.5,1.5C113.3,76,113.5,76,113.7,75.8z"/>
		</g>
	</g>
	<g>
		<path class="st2" d="M89.1,76.1L89.1,76.1c0-0.3,0.2-0.5,0.4-0.5h7.7c0.2,0,0.4,0.2,0.4,0.4v0.1c0,0.2-0.2,0.4-0.4,0.4h-7.7
			C89.2,76.5,89.1,76.3,89.1,76.1z"/>
		<path class="st2" d="M93.3,80.3L93.3,80.3c-0.3,0-0.5-0.2-0.5-0.4v-7.7c0-0.2,0.2-0.4,0.4-0.4h0.1c0.2,0,0.4,0.2,0.4,0.4v7.7
			C93.7,80.1,93.5,80.3,93.3,80.3z"/>
		<path class="st2" d="M90.3,79.1L90.3,79.1c-0.2-0.2-0.2-0.4-0.1-0.6l5.5-5.5c0.1-0.1,0.4-0.1,0.5,0l0.1,0.1c0.1,0.1,0.1,0.4,0,0.5
			l-5.5,5.5C90.7,79.2,90.5,79.2,90.3,79.1z"/>
		<path class="st2" d="M90.3,73.1L90.3,73.1c0.2-0.2,0.4-0.2,0.6-0.1l5.5,5.5c0.1,0.1,0.1,0.4,0,0.5l-0.1,0.1
			c-0.1,0.1-0.4,0.1-0.5,0l-5.5-5.5C90.1,73.5,90.1,73.2,90.3,73.1z"/>
		<path class="st2" d="M92,79.7L92,79.7c-0.2-0.2-0.2-0.4-0.1-0.6L93,78c0.1-0.1,0.4-0.1,0.5,0l0.1,0.1c0.1,0.1,0.1,0.4,0,0.5
			l-1.1,1.1C92.4,79.8,92.1,79.8,92,79.7z"/>
		<g>
			<path class="st2" d="M92,72.3L92,72.3c-0.2,0.2-0.2,0.4-0.1,0.6L93,74c0.1,0.1,0.4,0.1,0.5,0l0.1-0.1c0.1-0.1,0.1-0.4,0-0.5
				l-1.1-1.1C92.4,72.2,92.1,72.2,92,72.3z"/>
			<path class="st2" d="M94.6,72.3L94.6,72.3c0.2,0.2,0.2,0.4,0.1,0.6L93.6,74c-0.1,0.1-0.4,0.1-0.5,0L93,74c-0.1-0.1-0.1-0.4,0-0.5
				l1.1-1.1C94.2,72.2,94.4,72.2,94.6,72.3z"/>
		</g>
		<g>
			<path class="st2" d="M96.9,74.7L96.9,74.7c-0.2-0.2-0.4-0.2-0.6-0.1l-1.1,1.1c-0.1,0.1-0.1,0.4,0,0.5l0.1,0.1
				c0.1,0.1,0.4,0.1,0.5,0l1.1-1.1C97.1,75.1,97.1,74.9,96.9,74.7z"/>
			<path class="st2" d="M96.9,77.3L96.9,77.3c-0.2,0.2-0.4,0.2-0.6,0.1l-1.1-1.1c-0.1-0.1-0.1-0.4,0-0.5l0.1-0.1
				c0.1-0.1,0.4-0.1,0.5,0l1.1,1.1C97.1,77,97.1,77.2,96.9,77.3z"/>
		</g>
		<g>
			<path class="st2" d="M89.4,74.7L89.4,74.7c0.2-0.2,0.4-0.2,0.6-0.1l1.1,1.1c0.1,0.1,0.1,0.4,0,0.5l-0.1,0.1
				c-0.1,0.1-0.4,0.1-0.5,0l-1.1-1.1C89.3,75.1,89.3,74.9,89.4,74.7z"/>
			<path class="st2" d="M89.4,77.3L89.4,77.3c0.2,0.2,0.4,0.2,0.6,0.1l1.1-1.1c0.1-0.1,0.1-0.4,0-0.5l-0.1-0.1
				c-0.1-0.1-0.4-0.1-0.5,0l-1.1,1.1C89.3,77,89.3,77.2,89.4,77.3z"/>
		</g>
		<g>
			<path class="st2" d="M92,79.7L92,79.7c-0.2-0.2-0.2-0.4-0.1-0.6L93,78c0.1-0.1,0.4-0.1,0.5,0l0.1,0.1c0.1,0.1,0.1,0.4,0,0.5
				l-1.1,1.1C92.4,79.8,92.1,79.8,92,79.7z"/>
			<path class="st2" d="M94.6,79.7L94.6,79.7c0.2-0.2,0.2-0.4,0.1-0.6L93.6,78c-0.1-0.1-0.4-0.1-0.5,0L93,78c-0.1,0.1-0.1,0.4,0,0.5
				l1.1,1.1C94.2,79.8,94.4,79.8,94.6,79.7z"/>
		</g>
	</g>
	<g>
		<path class="st2" d="M101.3,80.7L101.3,80.7c0-0.1,0.1-0.2,0.2-0.2h3.8c0.1,0,0.2,0.1,0.2,0.2l0,0c0,0.1-0.1,0.2-0.2,0.2h-3.8
			C101.4,81,101.3,80.9,101.3,80.7z"/>
		<path class="st2" d="M103.4,82.9L103.4,82.9c-0.1,0-0.2-0.1-0.2-0.2v-3.8c0-0.1,0.1-0.2,0.2-0.2l0,0c0.1,0,0.2,0.1,0.2,0.2v3.8
			C103.6,82.8,103.5,82.9,103.4,82.9z"/>
		<path class="st2" d="M101.9,82.3L101.9,82.3c-0.1-0.1-0.1-0.2,0-0.3l2.7-2.7c0.1-0.1,0.2-0.1,0.3,0v0c0.1,0.1,0.1,0.2,0,0.3
			l-2.7,2.7C102.1,82.3,102,82.3,101.9,82.3z"/>
		<path class="st2" d="M101.9,79.2L101.9,79.2c0.1-0.1,0.2-0.1,0.3,0l2.7,2.7c0.1,0.1,0.1,0.2,0,0.3l0,0c-0.1,0.1-0.2,0.1-0.3,0
			l-2.7-2.7C101.8,79.5,101.8,79.3,101.9,79.2z"/>
		<path class="st2" d="M102.8,82.6L102.8,82.6c-0.1-0.1-0.1-0.2,0-0.3l0.5-0.5c0.1-0.1,0.2-0.1,0.3,0l0,0c0.1,0.1,0.1,0.2,0,0.3
			l-0.5,0.5C103,82.6,102.8,82.6,102.8,82.6z"/>
		<g>
			<path class="st2" d="M102.8,78.9L102.8,78.9c-0.1,0.1-0.1,0.2,0,0.3l0.5,0.5c0.1,0.1,0.2,0.1,0.3,0l0,0c0.1-0.1,0.1-0.2,0-0.3
				l-0.5-0.5C103,78.8,102.8,78.8,102.8,78.9z"/>
			<path class="st2" d="M104.1,78.9L104.1,78.9c0.1,0.1,0.1,0.2,0,0.3l-0.5,0.5c-0.1,0.1-0.2,0.1-0.3,0l0,0c-0.1-0.1-0.1-0.2,0-0.3
				l0.5-0.5C103.9,78.8,104,78.8,104.1,78.9z"/>
		</g>
		<g>
			<path class="st2" d="M105.2,80.1L105.2,80.1c-0.1-0.1-0.2-0.1-0.3,0l-0.5,0.5c-0.1,0.1-0.1,0.2,0,0.3l0,0c0.1,0.1,0.2,0.1,0.3,0
				l0.5-0.5C105.3,80.3,105.3,80.2,105.2,80.1z"/>
			<path class="st2" d="M105.2,81.4L105.2,81.4c-0.1,0.1-0.2,0.1-0.3,0l-0.5-0.5c-0.1-0.1-0.1-0.2,0-0.3l0,0c0.1-0.1,0.2-0.1,0.3,0
				l0.5,0.5C105.3,81.2,105.3,81.3,105.2,81.4z"/>
		</g>
		<g>
			<path class="st2" d="M101.5,80.1L101.5,80.1c0.1-0.1,0.2-0.1,0.3,0l0.5,0.5c0.1,0.1,0.1,0.2,0,0.3l0,0c-0.1,0.1-0.2,0.1-0.3,0
				l-0.5-0.5C101.4,80.3,101.4,80.2,101.5,80.1z"/>
			<path class="st2" d="M101.5,81.4L101.5,81.4c0.1,0.1,0.2,0.1,0.3,0l0.5-0.5c0.1-0.1,0.1-0.2,0-0.3l0,0c-0.1-0.1-0.2-0.1-0.3,0
				l-0.5,0.5C101.4,81.2,101.4,81.3,101.5,81.4z"/>
		</g>
		<g>
			<path class="st2" d="M102.8,82.6L102.8,82.6c-0.1-0.1-0.1-0.2,0-0.3l0.5-0.5c0.1-0.1,0.2-0.1,0.3,0l0,0c0.1,0.1,0.1,0.2,0,0.3
				l-0.5,0.5C103,82.6,102.8,82.6,102.8,82.6z"/>
			<path class="st2" d="M104.1,82.6L104.1,82.6c0.1-0.1,0.1-0.2,0-0.3l-0.5-0.5c-0.1-0.1-0.2-0.1-0.3,0l0,0c-0.1,0.1-0.1,0.2,0,0.3
				l0.5,0.5C103.9,82.6,104,82.6,104.1,82.6z"/>
		</g>
	</g>
	<g>
		<path class="st2" d="M96.1,64.3v-0.2c0-0.1,0.1-0.2,0.2-0.2h6c0.1,0,0.2,0.1,0.2,0.2v0.2c0,0.1-0.1,0.2-0.2,0.2h-6
			C96.2,64.6,96.1,64.5,96.1,64.3z"/>
		<path class="st2" d="M99.4,67.5h-0.2c-0.1,0-0.2-0.1-0.2-0.2v-6c0-0.1,0.1-0.2,0.2-0.2h0.2c0.1,0,0.2,0.1,0.2,0.2v6
			C99.6,67.4,99.5,67.5,99.4,67.5z"/>
		<path class="st2" d="M97.1,66.6l-0.2-0.2c-0.1-0.1-0.1-0.2,0-0.3l4.2-4.2c0.1-0.1,0.2-0.1,0.3,0l0.2,0.2c0.1,0.1,0.1,0.2,0,0.3
			l-4.2,4.2C97.3,66.7,97.2,66.7,97.1,66.6z"/>
		<path class="st2" d="M96.9,62l0.2-0.2c0.1-0.1,0.2-0.1,0.3,0l4.2,4.2c0.1,0.1,0.1,0.2,0,0.3l-0.2,0.2c-0.1,0.1-0.2,0.1-0.3,0
			l-4.2-4.2C96.9,62.3,96.9,62.1,96.9,62z"/>
		<path class="st2" d="M98.3,67l-0.2-0.2c-0.1-0.1-0.1-0.2,0-0.3l0.9-0.9c0.1-0.1,0.2-0.1,0.3,0l0.2,0.2c0.1,0.1,0.1,0.2,0,0.3
			L98.6,67C98.6,67.1,98.4,67.1,98.3,67z"/>
		<g>
			<path class="st2" d="M98.3,61.4l-0.2,0.2c-0.1,0.1-0.1,0.2,0,0.3l0.9,0.9c0.1,0.1,0.2,0.1,0.3,0l0.2-0.2c0.1-0.1,0.1-0.2,0-0.3
				l-0.9-0.9C98.6,61.3,98.4,61.3,98.3,61.4z"/>
			<path class="st2" d="M100.2,61.4l0.2,0.2c0.1,0.1,0.1,0.2,0,0.3l-0.9,0.9c-0.1,0.1-0.2,0.1-0.3,0L99,62.6c-0.1-0.1-0.1-0.2,0-0.3
				l0.9-0.9C100,61.3,100.1,61.3,100.2,61.4z"/>
		</g>
		<g>
			<path class="st2" d="M102.1,63.3l-0.2-0.2c-0.1-0.1-0.2-0.1-0.3,0l-0.9,0.9c-0.1,0.1-0.1,0.2,0,0.3l0.2,0.2
				c0.1,0.1,0.2,0.1,0.3,0l0.9-0.9C102.2,63.5,102.2,63.4,102.1,63.3z"/>
			<path class="st2" d="M102.1,65.2l-0.2,0.2c-0.1,0.1-0.2,0.1-0.3,0l-0.9-0.9c-0.1-0.1-0.1-0.2,0-0.3l0.2-0.2
				c0.1-0.1,0.2-0.1,0.3,0l0.9,0.9C102.2,65,102.2,65.1,102.1,65.2z"/>
		</g>
		<g>
			<path class="st2" d="M96.3,63.3l0.2-0.2c0.1-0.1,0.2-0.1,0.3,0l0.9,0.9c0.1,0.1,0.1,0.2,0,0.3l-0.2,0.2c-0.1,0.1-0.2,0.1-0.3,0
				l-0.9-0.9C96.2,63.5,96.2,63.4,96.3,63.3z"/>
			<path class="st2" d="M96.3,65.2l0.2,0.2c0.1,0.1,0.2,0.1,0.3,0l0.9-0.9c0.1-0.1,0.1-0.2,0-0.3l-0.2-0.2c-0.1-0.1-0.2-0.1-0.3,0
				l-0.9,0.9C96.2,65,96.2,65.1,96.3,65.2z"/>
		</g>
		<g>
			<path class="st2" d="M98.3,67l-0.2-0.2c-0.1-0.1-0.1-0.2,0-0.3l0.9-0.9c0.1-0.1,0.2-0.1,0.3,0l0.2,0.2c0.1,0.1,0.1,0.2,0,0.3
				L98.6,67C98.6,67.1,98.4,67.1,98.3,67z"/>
			<path class="st2" d="M100.2,67l0.2-0.2c0.1-0.1,0.1-0.2,0-0.3l-0.9-0.9c-0.1-0.1-0.2-0.1-0.3,0L99,65.8c-0.1,0.1-0.1,0.2,0,0.3
				l0.9,0.9C100,67.1,100.1,67.1,100.2,67z"/>
		</g>
	</g>
</g>
</svg>
