<?xml version="1.0" encoding="utf-8"?>
<!-- Generator: Adobe Illustrator 23.0.2, SVG Export Plug-In . SVG Version: 6.00 Build 0)  -->
<svg version="1.1" id="Layer_1" xmlns="http://www.w3.org/2000/svg" xmlns:xlink="http://www.w3.org/1999/xlink" x="0px" y="0px"
	 viewBox="0 0 200 91.2" style="enable-background:new 0 0 200 91.2;" xml:space="preserve">
<style type="text/css">
	.st0{fill:#B7B7B7;}
	.st1{fill:#FFFFFF;}
	.st2{fill:#E2E2E2;}
	.st3{fill:#5B5B5B;}
	.st4{fill:#777776;}
	.st5{fill:#F9B800;}
</style>
<path class="st0" d="M164,130.9l11.3-18.9c0.3-0.6,1.1-0.8,1.6-0.4l0,0c0.6,0.3,0.8,1.1,0.4,1.7L166,132.1c-0.3,0.6-1.1,0.8-1.6,0.4
	l0,0C163.8,132.2,163.6,131.4,164,130.9z"/>
<path class="st0" d="M147.9,154.8l11.3-18.9c0.3-0.6,1.1-0.8,1.6-0.4l0,0c0.6,0.3,0.8,1.1,0.4,1.6l-11.2,19
	c-0.3,0.6-1.1,0.8-1.6,0.4l0,0C147.8,156.1,147.6,155.4,147.9,154.8z"/>
<path class="st1" d="M291.9,110.6l11.3-18.8c0.3-0.6,1.1-0.8,1.6-0.4l0,0c0.6,0.3,0.8,1.1,0.4,1.7L294,111.9
	c-0.3,0.6-1.1,0.8-1.7,0.4l0,0C291.7,111.9,291.6,111.2,291.9,110.6z"/>
<path class="st1" d="M332.4,110.9l11.3-18.8c0.3-0.6,1.1-0.8,1.7-0.4l0,0c0.6,0.3,0.8,1.1,0.4,1.7l-11.3,18.9
	c-0.3,0.6-1.1,0.8-1.7,0.4l0,0C332.3,112.2,332.1,111.5,332.4,110.9z"/>
<path class="st1" d="M312.2,110.9l11.3-18.8c0.3-0.6,1.1-0.8,1.7-0.4l0,0c0.6,0.3,0.8,1.1,0.4,1.7l-11.4,18.8
	c-0.3,0.6-1.1,0.8-1.6,0.4l0,0C312,112.2,311.8,111.5,312.2,110.9z"/>
<path class="st2" d="M225.4,70.6"/>
<g>
	<path class="st3" d="M134,52.2c0,7.3-5.9,13.3-13.3,13.3l-29-0.2c-14.3,0-25.8-11.6-25.8-25.8c0-14.3,11.6-25.9,25.8-25.9
		s25.8,11.5,25.9,25.7c1-0.3,2.1-0.4,3.2-0.4C128,38.9,134,44.9,134,52.2z"/>
	<path class="st4" d="M143.1,33.2c0,2.7-2.2,5-5,5l-10.8-0.1c-5.3,0-9.6-4.3-9.6-9.6c0-5.3,4.3-9.7,9.6-9.7c5.3,0,9.6,4.3,9.7,9.6
		c0.4-0.1,0.8-0.1,1.2-0.1C140.9,28.2,143.1,30.5,143.1,33.2z"/>
	<polygon class="st5" points="77.8,77.6 82.4,63.9 74.4,63.9 84.7,47 80.2,60.7 88.1,60.7 	"/>
</g>
</svg>
